<!DOCTYPE svg PUBLIC "-//W3C//DTD SVG 1.1//EN" "http://www.w3.org/Graphics/SVG/1.1/DTD/svg11.dtd">
<!-- Uploaded to: SVG Repo, www.svgrepo.com, Transformed by: SVG Repo Mixer Tools -->
<svg version="1.1" id="Icons" xmlns="http://www.w3.org/2000/svg" xmlns:xlink="http://www.w3.org/1999/xlink" viewBox="0 0 32 32" xml:space="preserve" width="800px" height="800px" fill="#F7924A" transform="matrix(-1, 0, 0, -1, 0, 0)rotate(270)">
<g id="SVGRepo_bgCarrier" stroke-width="0"/>
<g id="SVGRepo_tracerCarrier" stroke-linecap="round" stroke-linejoin="round"/>
<g id="SVGRepo_iconCarrier"> <style type="text/css"> .st0{fill:none;stroke:#000000;stroke-width:2;stroke-linecap:round;stroke-linejoin:round;stroke-miterlimit:10;} </style> <path d="M19,2h-2v5.2c1.2,0.4,2,1.5,2,2.8v3c0,1.7-1.3,3-3,3s-3-1.3-3-3v-3c0-1.3,0.8-2.4,2-2.8V2h-2C9.1,2,6,5.1,6,9v11 c0,5.5,4.5,10,10,10s10-4.5,10-10V9C26,5.1,22.9,2,19,2z"/> </g>
</svg>